# xmcd
#
# Track frame offsets: 
#        150
#        19167
#        33947
#        50065
#        65147
#        84585
#        95417
#        111820
#        129102
#        143537
#        159532
#        175520
#        191552
#
# Disc length: 2785 seconds
#
# Revision: 5
# Processed by: cddbd v1.5.2PL0 Copyright (c) Steve Scherf et al.
# Submitted via: ExactAudioCopy v0.95b4
#
DISCID=a50adf0d
DTITLE=Antonsen, Marianne - Pickin' up the spirit
DYEAR=1992
DGENRE=Blues
TTITLE0=Little boy
TTITLE1=Gamblin' man
TTITLE2=Jesus on the main line
TTITLE3=I'm willing
TTITLE4=Nobody knows
TTITLE5=Denomination blues
TTITLE6=Wonders and things
TTITLE7=Motherless children
TTITLE8=Sometime I feel like a motherless child
TTITLE9=Anyhow
TTITLE10=Go down Moses
TTITLE11=I bid you good night
TTITLE12=I don't feel noways tired
EXTD=
EXTT0=
EXTT1=
EXTT2=
EXTT3=
EXTT4=
EXTT5=
EXTT6=
EXTT7=
EXTT8=
EXTT9=
EXTT10=
EXTT11=
EXTT12=
PLAYORDER=
